<svg width="62" height="61" viewBox="0 0 62 61" fill="none" xmlns="http://www.w3.org/2000/svg">
<path fill-rule="evenodd" clip-rule="evenodd" d="M50.641 0.570068H10.8974C4.87179 0.570068 0 5.44186 0 11.4675V49.6726C0 55.6983 4.87179 60.5701 10.8974 60.5701H50.641C56.6667 60.5701 61.5385 55.6983 61.5385 49.6726V11.4675C61.5385 5.44186 56.6667 0.570068 50.641 0.570068ZM20.2051 36.4675H29.7436L31.8461 42.5701C31.8974 42.7496 32.0769 42.8778 32.2564 42.8521H37.6154C37.8718 42.8521 37.9487 42.7239 37.8718 42.4419L28.5128 16.0316C28.4872 15.9034 28.3846 15.8265 28.1795 15.8265H21.5384C21.4102 15.8521 21.3077 15.9803 21.3333 16.1085C21.3333 16.6726 21.282 17.2368 21.1795 17.7752C21.1068 17.9932 21.047 18.1983 20.991 18.3906C20.9679 18.4697 20.9455 18.5466 20.923 18.6214L12.6666 42.3906C12.5897 42.6983 12.6666 42.8521 12.9487 42.8521H17.7692C18 42.8778 18.2051 42.7239 18.2564 42.4932L20.2051 36.4675ZM28.2051 31.2624H21.6923C22.0769 30.1855 22.4615 28.9803 22.8205 27.6726C23.0745 26.8789 23.3187 26.0852 23.5591 25.3036C23.707 24.8228 23.8535 24.3466 24 23.8778C24.3589 22.7752 24.641 21.6726 24.8718 20.5701H24.923C25.0231 20.9131 25.1232 21.2721 25.2277 21.6471C25.3106 21.9447 25.3964 22.2524 25.4872 22.5701C25.6923 23.3137 25.923 24.0573 26.1795 24.8521C26.3077 25.2496 26.4295 25.6406 26.5513 26.0316C26.673 26.4226 26.7948 26.8137 26.9231 27.2111C27.1538 27.9803 27.3846 28.7239 27.6154 29.4162C27.8461 30.0829 28.0513 30.7239 28.2051 31.2624ZM41.3077 19.4162C41.9231 20.006 42.7436 20.3393 43.5897 20.3137C44.4615 20.365 45.3333 20.0316 45.9231 19.4162C46.5384 18.7752 46.8461 17.9291 46.8205 17.0573C46.8461 16.2111 46.5384 15.3906 45.9743 14.7752C45.4102 14.1855 44.641 13.8778 43.641 13.8778C42.7948 13.8778 41.9743 14.1855 41.359 14.7752C40.7436 15.365 40.4102 16.1855 40.4359 17.0573C40.4102 17.9291 40.7179 18.7752 41.3077 19.4162ZM40.7179 22.8265V42.5701C40.7179 42.8265 40.8461 42.9803 41.1025 42.9803H46.1282C46.3589 42.9803 46.4615 42.8521 46.4615 42.5701V22.8265C46.4615 22.5957 46.3589 22.4675 46.1282 22.4675H41.0513C40.8205 22.4675 40.7179 22.5701 40.7179 22.8265Z" fill="#6F7A87"/>
</svg>
