<svg width="57" height="61" viewBox="0 0 57 61" fill="none" xmlns="http://www.w3.org/2000/svg">
<path fill-rule="evenodd" clip-rule="evenodd" d="M26.5951 0.570068C26.5128 0.570068 26.432 0.591728 26.3607 0.632869V0.630994L0.234477 15.7604C0.163223 15.8015 0.104054 15.8607 0.0629167 15.9319C0.0248641 15.9979 0.00347986 16.072 0.000486542 16.1478C0.000164929 16.1549 2.28372e-06 16.1619 0 16.169V46.4259C2.66504e-05 46.5085 0.0218918 46.5897 0.0633802 46.6611C0.104869 46.7326 0.164506 46.7918 0.23625 46.8328L5.34518 49.7754C5.35331 49.7808 5.36163 49.7859 5.37011 49.7908C5.44169 49.8321 5.52291 49.8538 5.60555 49.8536L5.60751 49.8536C5.68965 49.8533 5.7703 49.8315 5.84138 49.7903C5.8498 49.7855 5.85804 49.7803 5.8661 49.775L8.99622 47.962V51.6048C8.99605 51.6872 9.01764 51.7682 9.05879 51.8397C9.09994 51.9111 9.1592 51.9704 9.23059 52.0117L14.3298 54.9476C14.341 54.9554 14.3525 54.9628 14.3645 54.9697C14.436 55.011 14.5173 55.0326 14.5999 55.0324C14.6825 55.0322 14.7636 55.0102 14.835 54.9685L14.8362 54.9678L20.91 51.4501L23.6343 60.2391C23.6526 60.2987 23.6826 60.354 23.7226 60.4018C23.7625 60.4496 23.8116 60.489 23.867 60.5176C23.9223 60.5463 23.9828 60.5636 24.0449 60.5686C24.107 60.5735 24.1695 60.5661 24.2287 60.5466L29.6417 58.7753C29.6762 58.7659 29.7097 58.7525 29.7413 58.7354L55.907 44.7516C56.0037 44.6998 56.0793 44.6157 56.1204 44.514C56.1615 44.4122 56.1656 44.2992 56.132 44.1948L46.2263 13.4223C46.2155 13.3885 46.2008 13.3561 46.1827 13.3258C46.1727 13.309 46.1616 13.2928 46.1495 13.2773L46.1411 13.2668L46.1345 13.259C46.0932 13.2113 46.0428 13.1725 45.9862 13.1447L45.9726 13.1383L45.9633 13.1342L45.9561 13.1312L45.9545 13.1279C45.8906 13.1022 45.8219 13.0909 45.7532 13.0948C45.6934 13.0982 45.6348 13.113 45.5807 13.1384L41.1956 14.7123V9.21203C41.1967 9.19924 41.1972 9.18638 41.1972 9.17349C41.1972 9.09089 41.1754 9.00976 41.134 8.93831C41.0925 8.86686 41.0329 8.80763 40.9613 8.76661L35.8237 5.81161C35.7525 5.77047 35.6717 5.74881 35.5894 5.74881C35.5071 5.74881 35.4263 5.77047 35.355 5.81161L32.1994 7.63896V4.03425C32.2005 4.02114 32.2011 4.00796 32.2011 3.99474C32.2011 3.91215 32.1793 3.83102 32.1378 3.75957C32.0979 3.69064 32.041 3.63309 31.9727 3.59229L31.9651 3.58779L31.9595 3.58461L26.8295 0.632869C26.7582 0.591728 26.6774 0.570068 26.5951 0.570068ZM45.4388 14.2815L45.5039 14.2467L45.5043 14.2477L45.5078 14.2459L53.3195 38.5227L54.1608 41.1358L55.0947 44.0373L55.0941 44.0375L55.1172 44.1091L50.7312 46.4526L50.7317 46.4525L29.7941 57.6421L29.7935 57.6401L29.7929 57.6404L20.1797 27.781L20.1811 27.7803L20.1807 27.7791H20.1826L31.2619 21.858V21.8581L32.1994 21.3571V21.357L33.5039 20.6599L40.2581 17.0502V17.0509L41.5223 16.3754L41.5221 16.3747L45.4388 14.2815ZM14.0852 29.2111L14.0855 29.2103L14.0775 24.5744L9.93559 22.1642V46.3332L9.93747 46.3321V47.4168L9.93559 47.4179V51.3329L14.1281 53.7479L14.1129 44.9984L14.1093 45.0005V43.9158L14.111 43.9149L14.1093 42.9426V41.531L14.1069 41.531L14.0861 29.5501C14.0436 29.4414 14.0431 29.3204 14.0852 29.2111ZM27.1315 52.4373L28.9284 58.0194L24.3918 59.506L21.7447 50.9667L21.7503 50.9635L21.4645 50.0443L21.4597 50.0471L19.7269 44.4574L17.8984 38.5779L17.9036 38.5755L15.1387 29.656H15.1368L19.3124 28.156L22.7719 38.8987L22.7718 38.8988L23.0662 39.8127L23.0662 39.8126L23.3585 40.7202L27.1328 52.4373L27.1315 52.4373ZM13.5612 23.1853L14.5481 23.7591L30.7012 14.4237L32.2188 13.5701L32.2476 13.53L39.7856 9.17349L35.5912 6.76036L32.1994 8.72451V8.73872L31.2619 9.28829V9.2674L10.4021 21.347L13.5612 23.1853ZM5.55312 18.5799L30.7908 3.99443L26.5951 1.58162L1.40697 16.1688L2.7153 16.9301L5.55312 18.5799ZM4.32873 18.9563L5.08125 19.3945L5.13375 48.569L0.939375 46.154V16.9847L4.32873 18.9563ZM34.2786 24.6254C34.3576 24.5852 34.4465 24.5683 34.5348 24.5766C34.623 24.5849 34.7072 24.6181 34.7773 24.6722L50.8723 37.0773C50.9465 37.1348 51.0018 37.2132 51.0308 37.3025C51.0599 37.3918 51.0615 37.4877 51.0355 37.5779L49.9292 41.4666C49.9096 41.5372 49.8737 41.6021 49.8245 41.6563C49.7752 41.7105 49.714 41.7524 49.6456 41.7787C49.5773 41.8049 49.5037 41.8148 49.4309 41.8075C49.358 41.8002 49.2879 41.7759 49.2261 41.7366L36.0017 33.4454L33.4686 49.8291C33.4576 49.9006 33.4303 49.9686 33.3887 50.0277C33.3471 50.0869 33.2924 50.1356 33.2289 50.1701C33.1653 50.2046 33.0947 50.224 33.0224 50.2266C32.9501 50.2292 32.8782 50.2151 32.8123 50.1854L29.3436 48.6366C29.2559 48.5977 29.1822 48.5327 29.1326 48.4506C29.083 48.3684 29.0597 48.273 29.0661 48.1773L30.4948 26.8172C30.4998 26.7362 30.5257 26.6578 30.5701 26.5897C30.6145 26.5217 30.6758 26.4663 30.748 26.4291L34.2786 24.6254Z" fill="#6F7A87"/>
</svg>
