<svg width="40" height="61" viewBox="0 0 40 61" fill="none" xmlns="http://www.w3.org/2000/svg">
<path d="M19.9849 30.5814C19.9849 25.0691 24.4537 20.5776 29.9886 20.5776C35.5009 20.5776 39.9924 25.0464 39.9924 30.5814C39.9924 36.0937 35.5236 40.5852 29.9886 40.5852C24.4764 40.5852 19.9849 36.0937 19.9849 30.5814Z" fill="#6F7A87"/>
<path d="M0 50.5663C0 45.054 4.46881 40.5625 10.0038 40.5625H20.0076V50.5663C20.0076 56.0786 15.5387 60.5701 10.0038 60.5701C4.46881 60.5701 0 56.1012 0 50.5663Z" fill="#6F7A87"/>
<path d="M19.9849 0.592753V20.5776H29.9886C35.5009 20.5776 39.9924 16.1088 39.9924 10.5738C39.9924 5.06156 35.5236 0.570068 29.9886 0.570068H19.9849V0.592753Z" fill="#6F7A87"/>
<path d="M0 10.5965C0 16.1088 4.46881 20.6003 10.0038 20.6003H20.0076V0.592773H10.0038C4.46881 0.592773 0 5.06158 0 10.5965Z" fill="#6F7A87"/>
<path d="M0 30.5814C0 36.0937 4.46881 40.5852 10.0038 40.5852H20.0076V20.5776H10.0038C4.46881 20.5776 0 25.0691 0 30.5814Z" fill="#6F7A87"/>
</svg>
