<svg width="60" height="61" viewBox="0 0 60 61" fill="none" xmlns="http://www.w3.org/2000/svg">
<path d="M30 0.570068C13.4304 0.570068 0 14.0005 0 30.5701C0 47.1397 13.4304 60.5701 30 60.5701C46.5696 60.5701 60 47.1397 60 30.5701C60 14.0005 46.5696 0.570068 30 0.570068ZM6.4464 30.8821L29.688 54.1237C16.9248 53.9581 6.612 43.6453 6.4464 30.8821ZM35.2728 53.5357L7.0344 25.2973C9.4296 14.8261 18.8016 7.01167 30 7.01167C37.8264 7.01167 44.7624 10.8301 49.0464 16.7053L45.7848 19.5829C42.3096 14.6005 36.5352 11.3389 30 11.3389C21.6792 11.3389 14.592 16.6237 11.9136 24.0205L36.5496 48.6541C42.5328 46.4869 47.1336 41.4373 48.6744 35.1829H38.4648V30.5701H53.5608C53.5584 41.7685 45.744 51.1405 35.2728 53.5357Z" fill="#6F7A87"/>
</svg>
