<svg width="60" height="61" viewBox="0 0 60 61" fill="none" xmlns="http://www.w3.org/2000/svg">
<path fill-rule="evenodd" clip-rule="evenodd" d="M60 0.570068H0V60.5701H60V0.570068ZM47.6955 39.408C52.9931 41.525 54.7819 43.7939 55.2219 46.4964C55.6449 48.8217 55.119 50.3305 55.0391 50.5558C53.0846 57.1431 42.1866 57.357 37.8319 53.0049C37.6996 52.8576 37.5744 52.7204 37.4554 52.59C36.7464 51.8131 36.2558 51.2754 35.786 50.263L35.7895 50.261C38.1005 48.9512 38.1016 48.9506 40.3521 47.6675C41.5751 49.5199 42.7065 50.5389 44.741 50.9555C47.5013 51.2877 50.2786 50.3531 49.6557 47.4648C49.2846 46.0972 47.4441 45.3294 45.2978 44.4341C43.7421 43.7851 42.0258 43.0692 40.5921 42.0092C37.1289 39.7177 36.3174 34.1495 39.1634 30.9685C40.112 29.7918 41.7294 28.9134 43.4266 28.4912C43.7195 28.4547 44.0137 28.4169 44.308 28.3791C44.6052 28.3409 44.9024 28.3028 45.1982 28.266C48.5985 28.1984 50.7244 29.0824 52.2845 30.7996C52.7188 31.233 53.0732 31.7004 53.7361 32.7138C53.3624 32.9484 53.0661 33.1341 52.8083 33.2956C51.8162 33.9173 51.3951 34.1813 49.3357 35.4951C48.7814 34.3184 47.8613 33.5808 46.8898 33.2599C45.3811 32.8095 43.478 33.2993 43.0837 34.8701C42.9466 35.3543 42.9751 35.8047 43.1923 36.6042C43.6872 37.7161 45.1256 38.319 46.6317 38.9503C46.9864 39.099 47.3448 39.2492 47.6955 39.408ZM27.0823 28.615H32.7057C32.7057 30.3147 32.7089 32.0125 32.712 33.709C32.7184 37.0984 32.7247 40.4828 32.7057 43.8671C32.7074 44.3266 32.7148 44.7797 32.7221 45.2256C32.7642 47.8009 32.8025 50.1389 31.7113 52.1209C30.8255 53.8944 29.134 55.0598 27.1738 55.6228C24.1621 56.3041 21.2818 55.9156 19.1388 54.6488C17.7044 53.7818 16.5843 52.4475 15.8242 50.9104C16.5862 50.4521 17.3468 49.9924 18.1074 49.5327C18.8698 49.0719 19.6322 48.6111 20.396 48.1517C20.4317 48.1667 20.5308 48.338 20.665 48.5701C20.6816 48.5987 20.6986 48.6282 20.7161 48.6584C21.299 49.6211 21.8019 50.3023 22.7906 50.7809C23.7621 51.1075 25.8937 51.3158 26.7166 49.6324C27.1178 48.9497 27.0971 47.0344 27.0724 44.7412C27.0661 44.1598 27.0595 43.5541 27.0595 42.9381C27.0595 40.5453 27.0652 38.1609 27.0709 35.7766C27.0766 33.3922 27.0823 31.0078 27.0823 28.615Z" fill="#6F7A87"/>
</svg>
