<svg width="61" height="61" viewBox="0 0 61 61" fill="none" xmlns="http://www.w3.org/2000/svg">
<path d="M28.0671 0.521578C27.938 0.533307 27.5275 0.574357 27.158 0.603678C18.636 1.37189 10.6536 5.96946 5.59784 13.0359C2.78259 16.9649 0.982007 21.4217 0.301655 26.1424C0.0611859 27.7903 0.0318604 28.277 0.0318604 30.5113C0.0318604 32.7456 0.0611859 33.2323 0.301655 34.8802C1.93215 46.1454 9.94975 55.6103 20.8236 59.1171C22.7709 59.7445 24.8236 60.1726 27.158 60.4307C28.0671 60.5304 31.9967 60.5304 32.9058 60.4307C36.9351 59.985 40.3486 58.9881 43.7151 57.2698C44.2313 57.0059 44.331 56.9356 44.2606 56.8769C44.2137 56.8417 42.0143 53.892 39.375 50.3266L34.5773 43.8466L28.5656 34.9505C25.2577 30.0598 22.5363 26.0603 22.5128 26.0603C22.4893 26.0545 22.4659 30.007 22.4541 34.8333C22.4366 43.2836 22.4307 43.6237 22.3251 43.8231C22.1726 44.1105 22.0553 44.2278 21.809 44.3568C21.6213 44.4506 21.4571 44.4682 20.5714 44.4682H19.5568L19.287 44.2981C19.111 44.1867 18.982 44.0401 18.894 43.87L18.7709 43.6062L18.7826 31.8484L18.8002 20.0847L18.982 19.856C19.0758 19.7328 19.2753 19.5745 19.416 19.4983C19.6565 19.381 19.7503 19.3692 20.765 19.3692C21.9615 19.3692 22.1609 19.4162 22.4717 19.7563C22.5597 19.8501 25.8149 24.7526 29.7093 30.6579C33.6037 36.5632 38.9292 44.6265 41.5451 48.5849L46.2958 55.7803L46.5363 55.622C48.6653 54.238 50.9175 52.2676 52.7005 50.2152C56.4952 45.858 58.941 40.545 59.7621 34.8802C60.0025 33.2323 60.0319 32.7456 60.0319 30.5113C60.0319 28.277 60.0025 27.7903 59.7621 26.1424C58.1316 14.8772 50.114 5.41236 39.2401 1.90554C37.3222 1.28393 35.2811 0.85584 32.9937 0.597813C32.4307 0.539171 28.5539 0.474664 28.0671 0.521578ZM40.3486 18.6655C40.6301 18.8063 40.8588 19.076 40.941 19.3575C40.9879 19.51 40.9996 22.7705 40.9879 30.1184L40.9703 40.6623L39.111 37.8123L37.2459 34.9623V27.2977C37.2459 22.3424 37.2694 19.5569 37.3046 19.422C37.3984 19.0936 37.6037 18.8356 37.8852 18.6831C38.1257 18.56 38.2137 18.5483 39.1345 18.5483C40.0025 18.5483 40.155 18.56 40.3486 18.6655Z" fill="#6F7A87"/>
</svg>
