<svg width="62" height="61" viewBox="0 0 62 61" fill="none" xmlns="http://www.w3.org/2000/svg">
<path fill-rule="evenodd" clip-rule="evenodd" d="M50.641 0.570068H10.8974C4.87179 0.570068 0 5.44186 0 11.4675V49.6726C0 55.6983 4.87179 60.5701 10.8974 60.5701H50.641C56.6667 60.5701 61.5385 55.6983 61.5385 49.6726V11.4675C61.5385 5.44186 56.6667 0.570068 50.641 0.570068ZM13.8461 16.2624V42.647C13.8461 42.8778 13.9487 42.9803 14.1538 42.9803H19.1282C19.3077 42.9547 19.4359 42.8009 19.4102 42.6214V34.3906C19.8974 34.3906 20.2564 34.3906 20.5128 34.4162C20.7692 34.4419 21.1795 34.4419 21.7948 34.4419C23.8974 34.4419 25.8205 34.2111 27.5641 33.5701C29.2307 32.9547 30.6666 31.8778 31.6923 30.4419C32.7179 29.006 33.2307 27.1855 33.2307 24.9803C33.2307 23.8265 33.0256 22.7239 32.641 21.647C32.2307 20.5444 31.5897 19.5444 30.7692 18.7239C29.7948 17.7752 28.6154 17.0573 27.3333 16.6214C25.8974 16.0829 24.1538 15.8265 22.0513 15.8265C21.282 15.8265 20.5128 15.8265 19.7179 15.8521C19.3342 15.8645 18.9624 15.8709 18.6025 15.8771C18.217 15.8838 17.8452 15.8902 17.4872 15.9034C17.1514 15.9159 16.8277 15.9223 16.5131 15.9285C16.1791 15.9351 15.8554 15.9415 15.5384 15.9547C14.9487 15.9803 14.5384 15.9803 14.1025 15.9803C13.9231 15.9803 13.8461 16.0829 13.8461 16.2624ZM19.4359 29.5444V20.9291C19.6154 20.9034 19.9743 20.8778 20.4872 20.9034C20.9743 20.8778 21.5641 20.8778 22.2307 20.8778C23.282 20.8521 24.3077 21.006 25.2564 21.3906C26 21.6726 26.6154 22.1855 27.0513 22.8521C27.4615 23.5444 27.6666 24.3393 27.641 25.1342C27.641 26.2624 27.3846 27.1342 26.8461 27.7752C26.282 28.4162 25.5641 28.9034 24.7436 29.1342C23.7948 29.4419 22.7948 29.5957 21.7948 29.5957H20.4359C20.1502 29.5957 19.8425 29.5736 19.5127 29.5499C19.4872 29.5481 19.4616 29.5463 19.4359 29.5444ZM46.7692 27.1085C47.641 27.288 48.4615 27.5701 49.2307 27.9803C49.3333 28.0316 49.4615 28.0316 49.6923 27.9803C49.7692 27.9291 49.8205 27.8265 49.8205 27.7239V23.5444C49.8205 23.4419 49.7948 23.3393 49.7692 23.2367C49.7179 23.1342 49.6154 23.0316 49.5128 23.006C48.8205 22.7239 48.0769 22.5188 47.3077 22.4162C46.2564 22.2624 45.1795 22.1855 44.1282 22.1855C42.3077 22.1855 40.7948 22.4675 39.5897 23.0829C38.4872 23.5957 37.5384 24.4162 36.8974 25.4419C36.3333 26.3906 36.0256 27.4419 36.0256 28.5444C36 29.4419 36.2051 30.3393 36.6154 31.1598C37.1025 32.0316 37.7692 32.7752 38.5641 33.3393C39.6923 34.1085 40.8974 34.7239 42.2051 35.1855C43.4615 35.6726 44.3077 36.0573 44.7179 36.3906C45.1282 36.7239 45.3333 37.0573 45.3333 37.4162C45.3333 37.8778 45.0513 38.3137 44.641 38.4932C44.1795 38.7239 43.4872 38.8521 42.5128 38.8521C41.4872 38.8521 40.4615 38.7239 39.4872 38.4675C38.3589 38.2111 37.3077 37.8008 36.3077 37.2111C36.2307 37.1598 36.1538 37.1342 36.0769 37.1855C36 37.2368 35.9743 37.3393 35.9743 37.4162V41.8778C35.9487 42.0829 36.0769 42.2624 36.2564 42.365C37.0769 42.7496 37.9743 43.0316 38.8718 43.1855C40.0256 43.4162 41.1795 43.5188 42.3589 43.5188C44.2051 43.5188 45.7436 43.2368 47 42.6983C48.1538 42.2368 49.1538 41.4419 49.8718 40.4162C50.5384 39.4162 50.8974 38.2111 50.8718 37.006C50.8974 36.0829 50.6923 35.1855 50.282 34.365C49.7948 33.4932 49.1025 32.7752 48.2564 32.2367C47.0256 31.4675 45.6923 30.8265 44.3077 30.365C43.6923 30.1085 43.0769 29.8265 42.4872 29.5188C42.1538 29.3393 41.8461 29.1085 41.6154 28.8265C41.4615 28.6214 41.359 28.3906 41.359 28.1598C41.359 27.9291 41.4359 27.6726 41.5641 27.4675C41.7436 27.2111 42.0256 27.0316 42.3589 26.9547C42.8461 26.8265 43.3846 26.7496 43.8974 26.7752C44.8718 26.7752 45.8205 26.9034 46.7692 27.1085Z" fill="#6F7A87"/>
</svg>
