<svg width="56" height="61" viewBox="0 0 56 61" fill="none" xmlns="http://www.w3.org/2000/svg">
<path d="M54.4112 24.7381C54.4112 21.1434 49.9095 17.7366 43.0074 15.624C44.6002 8.58926 43.8924 2.99243 40.773 1.20055C40.054 0.780228 39.2135 0.581124 38.2954 0.581124V3.04773C38.8042 3.04773 39.2135 3.14728 39.5563 3.33531C41.0606 4.19805 41.7133 7.48316 41.2043 11.7084C41.0829 12.7482 40.8838 13.8432 40.6404 14.9603C38.4723 14.4294 36.1053 14.0202 33.6166 13.7547C32.1235 11.7084 30.5749 9.85019 29.0152 8.22425C32.6211 4.87278 36.0059 3.03665 38.3066 3.03665V0.570068C35.2646 0.570068 31.2828 2.73802 27.2567 6.49873C23.2304 2.76013 19.2485 0.614316 16.2068 0.614316V3.0809C18.4964 3.0809 21.892 4.90597 25.4979 8.2353C23.9494 9.86127 22.4008 11.7084 20.9297 13.7547C18.4299 14.0202 16.0629 14.4294 13.895 14.9714C13.6405 13.8653 13.4525 12.7924 13.3197 11.7637C12.8001 7.53847 13.4414 4.25336 14.9348 3.37955C15.2665 3.18045 15.6978 3.09198 16.2068 3.09198V0.625372C15.2776 0.625372 14.4369 0.824476 13.707 1.24479C10.5988 3.03665 9.90206 8.62243 11.5058 15.6351C4.62592 17.7588 0.14624 21.1545 0.14624 24.7381C0.14624 28.3331 4.64803 31.7399 11.55 33.8524C9.95721 40.8873 10.6651 46.4839 13.7845 48.2759C14.5035 48.6961 15.3439 48.8952 16.2731 48.8952C19.3148 48.8952 23.2969 46.7273 27.323 42.9666C31.3491 46.7053 35.3312 48.8512 38.3729 48.8512C39.3018 48.8512 40.1425 48.6521 40.8727 48.2316C43.9807 46.4397 44.6776 40.8539 43.0737 33.8415C49.9315 31.7288 54.4112 28.322 54.4112 24.7381ZM40.01 17.3606C39.6006 18.7875 39.0919 20.2584 38.5166 21.7296C38.0632 20.8449 37.5876 19.9599 37.0677 19.0749C36.5589 18.1902 36.0168 17.3274 35.4748 16.4868C37.0454 16.719 38.5608 17.0066 40.01 17.3606ZM34.9438 29.1404C34.0811 30.6338 33.1964 32.0496 32.2783 33.3659C30.6301 33.5096 28.9601 33.587 27.2787 33.587C25.6085 33.587 23.9382 33.5096 22.3014 33.3767C21.3833 32.0604 20.4872 30.6558 19.6245 29.1736C18.7838 27.7247 18.0208 26.2535 17.3238 24.7715C18.0097 23.2893 18.7838 21.807 19.6136 20.3581C20.4763 18.865 21.361 17.4491 22.2791 16.1328C23.9274 15.989 25.5973 15.9116 27.2787 15.9116C28.949 15.9116 30.6192 15.989 32.2561 16.1218C33.1742 17.438 34.0702 18.8427 34.9329 20.325C35.7736 21.7738 36.5367 23.245 37.2336 24.7272C36.5367 26.2093 35.7736 27.6915 34.9438 29.1404ZM38.5166 27.7027C39.0972 29.1441 39.6067 30.6133 40.0431 32.1047C38.594 32.4586 37.0677 32.7574 35.486 32.9897C36.0279 32.1381 36.5698 31.2643 37.0788 30.3682C37.5876 29.4835 38.0632 28.5874 38.5166 27.7027ZM27.3007 39.5047C26.2721 38.4426 25.2434 37.2591 24.2259 35.9651C25.2214 36.0094 26.2389 36.0425 27.2676 36.0425C28.3074 36.0425 29.336 36.0205 30.3427 35.9651C29.3932 37.1989 28.3778 38.3805 27.3007 39.5047ZM19.0715 32.9897C17.5009 32.7574 15.9855 32.4698 14.5366 32.1158C14.9457 30.689 15.4547 29.2178 16.0297 27.7467C16.4834 28.6317 16.959 29.5166 17.4786 30.4013C17.9985 31.2863 18.5295 32.149 19.0715 32.9897ZM27.2456 9.97188C28.2742 11.0337 29.3029 12.2172 30.3204 13.5114C29.3249 13.4671 28.3074 13.434 27.2787 13.434C26.2389 13.434 25.2103 13.4561 24.2039 13.5114C25.1532 12.2776 26.1686 11.096 27.2456 9.97188ZM19.0603 16.4868C18.5184 17.3385 17.9765 18.2123 17.4677 19.1081C16.959 19.993 16.4834 20.878 16.0297 21.7627C15.4491 20.3213 14.9397 18.8521 14.5035 17.3606C15.9523 17.0177 17.4786 16.719 19.0603 16.4868ZM9.05024 30.335C5.13473 28.6648 2.60177 26.4749 2.60177 24.7381C2.60177 23.0016 5.13473 20.8006 9.05024 19.1415C10.0015 18.7321 11.0413 18.3671 12.1142 18.0242C12.7447 20.1921 13.5742 22.4486 14.6029 24.7604C13.5854 27.0611 12.7667 29.3064 12.1474 31.4634C11.0524 31.1203 10.0126 30.7444 9.05024 30.335ZM15.0011 46.1411C13.4968 45.2784 12.8441 41.9934 13.3531 37.7679C13.4748 36.7284 13.6736 35.6332 13.917 34.516C16.0851 35.047 18.4521 35.4563 20.9408 35.7217C22.434 37.7679 23.9825 39.6261 25.5422 41.2521C21.9363 44.6037 18.5516 46.4397 16.2509 46.4397C15.7532 46.4288 15.333 46.3291 15.0011 46.1411ZM41.2377 37.7128C41.7574 41.938 41.116 45.223 39.6226 46.0969C39.291 46.296 38.8596 46.3845 38.3506 46.3845C36.061 46.3845 32.6654 44.5594 29.0595 41.2301C30.6081 39.6041 32.1566 37.757 33.6278 35.7106C36.1276 35.4452 38.4946 35.0359 40.6624 34.4939C40.9169 35.6112 41.116 36.6841 41.2377 37.7128ZM45.4961 30.335C44.5448 30.7444 43.505 31.1094 42.4321 31.4522C41.8016 29.2844 40.9721 27.0279 39.9434 24.7161C40.9612 22.4154 41.7796 20.1701 42.399 18.0132C43.4941 18.3561 44.5337 18.7321 45.5072 19.1415C49.4227 20.8115 51.9557 23.0016 51.9557 24.7381C51.9445 26.4749 49.4116 28.6759 45.4961 30.335Z" fill="#6F7A87"/>
<path d="M27.2676 29.7931C30.0595 29.7931 32.3226 27.53 32.3226 24.7381C32.3226 21.9465 30.0595 19.6833 27.2676 19.6833C24.4759 19.6833 22.2128 21.9465 22.2128 24.7381C22.2128 27.53 24.4759 29.7931 27.2676 29.7931ZM2.61028 57.5986H0.941647V60.4723H0V53.3684H2.3517C3.15184 53.3684 3.76662 53.5507 4.19596 53.915C4.62857 54.2791 4.84489 54.8094 4.84489 55.5054C4.84489 55.9479 4.72454 56.3332 4.48383 56.6619C4.24639 56.9904 3.91462 57.236 3.48851 57.3985L5.15715 60.4137V60.4723H4.15206L2.61028 57.5986ZM0.941647 56.8326H2.38098C2.84612 56.8326 3.21528 56.7121 3.48851 56.4715C3.76498 56.2308 3.90322 55.9088 3.90322 55.5054C3.90322 55.0664 3.77149 54.7298 3.50803 54.4955C3.24781 54.2613 2.8705 54.1426 2.37608 54.1394H0.941647V56.8326ZM8.21152 60.57C7.49584 60.57 6.91359 60.3358 6.46473 59.8674C6.01584 59.3957 5.79141 58.7662 5.79141 57.9792V57.8133C5.79141 57.2897 5.89062 56.8229 6.08903 56.4131C6.2907 55.9998 6.57044 55.6778 6.92823 55.447C7.28929 55.2128 7.6796 55.0956 8.09921 55.0956C8.78558 55.0956 9.31908 55.3216 9.69948 55.7738C10.0801 56.2259 10.2703 56.8731 10.2703 57.7156V58.0913H6.69403C6.70704 58.6119 6.85831 59.0331 7.14779 59.3551C7.44053 59.6737 7.81133 59.8332 8.26024 59.8332C8.57906 59.8332 8.8489 59.7682 9.07001 59.6381C9.29138 59.508 9.48479 59.3356 9.65075 59.1209L10.2021 59.5503C9.75958 60.23 9.09623 60.57 8.21152 60.57ZM8.09921 55.8373C7.73491 55.8373 7.42915 55.9706 7.18194 56.2373C6.93473 56.5009 6.78186 56.8717 6.72331 57.3498H9.3678V57.2815C9.34183 56.8229 9.21817 56.4683 8.99705 56.2177C8.77569 55.9642 8.47641 55.8373 8.09921 55.8373ZM14.5786 60.4723C14.5264 60.3682 14.4841 60.183 14.4517 59.9161C14.032 60.3519 13.5312 60.57 12.9489 60.57C12.4286 60.57 12.0009 60.4236 11.6658 60.1308C11.3341 59.8347 11.1681 59.4608 11.1681 59.0086C11.1681 58.4591 11.3764 58.0329 11.7927 57.7304C12.2121 57.4245 12.801 57.2716 13.5589 57.2716H14.4372V56.8571C14.4372 56.5415 14.3427 56.2909 14.1542 56.1057C13.9655 55.917 13.6872 55.8227 13.3197 55.8227C12.9977 55.8227 12.7278 55.9039 12.5099 56.0666C12.292 56.2291 12.183 56.426 12.183 56.657H11.2755C11.2755 56.3936 11.3682 56.1398 11.5535 55.8957C11.7422 55.6486 11.996 55.4535 12.3148 55.3102C12.6368 55.1673 12.9895 55.0956 13.3734 55.0956C13.9818 55.0956 14.4582 55.2484 14.803 55.5544C15.1477 55.8569 15.3266 56.2749 15.3397 56.8081V59.2379C15.3397 59.7227 15.4015 60.108 15.5252 60.3942V60.4723H14.5786ZM13.0808 59.7845C13.3637 59.7845 13.6321 59.7113 13.8858 59.5649C14.1394 59.4185 14.3231 59.2283 14.4372 58.994V57.911H13.7295C12.6237 57.911 12.0707 58.2345 12.0707 58.8817C12.0707 59.1647 12.1651 59.3861 12.3536 59.5453C12.5423 59.7046 12.7847 59.7845 13.0808 59.7845ZM18.8721 59.8332C19.1941 59.8332 19.4756 59.7355 19.7162 59.5404C19.9569 59.3452 20.0902 59.1014 20.1162 58.8085H20.9702C20.9539 59.111 20.8498 59.3989 20.6578 59.6722C20.4659 59.9455 20.2089 60.1634 19.8869 60.3259C19.5681 60.4887 19.23 60.57 18.8721 60.57C18.1533 60.57 17.5808 60.3309 17.1546 59.8528C16.7319 59.3712 16.5204 58.7143 16.5204 57.8815V57.7304C16.5204 57.2164 16.6147 56.7594 16.8034 56.3594C16.9921 55.9593 17.2619 55.6486 17.6134 55.4275C17.9678 55.2061 18.3858 55.0956 18.8671 55.0956C19.4593 55.0956 19.9505 55.2729 20.3408 55.6276C20.7343 55.982 20.944 56.4423 20.9702 57.0082H20.1162C20.0902 56.6666 19.9601 56.3869 19.7259 56.169C19.4951 55.9479 19.2087 55.8373 18.8671 55.8373C18.4086 55.8373 18.0524 56.003 17.7987 56.3349C17.5484 56.6634 17.423 57.14 17.423 57.7645V57.9352C17.423 58.5434 17.5484 59.0118 17.7987 59.3403C18.0492 59.669 18.4071 59.8332 18.8721 59.8332ZM23.2096 53.915V55.1933H24.1952V55.891H23.2096V59.1647C23.2096 59.3762 23.2536 59.5354 23.3414 59.6428C23.4292 59.7469 23.5788 59.7991 23.7903 59.7991C23.8942 59.7991 24.0374 59.7796 24.2194 59.7405V60.4723C23.982 60.5374 23.7512 60.57 23.5267 60.57C23.1235 60.57 22.8193 60.4479 22.6142 60.204C22.4094 59.9601 22.3071 59.6136 22.3071 59.1647V55.891H21.3457V55.1933H22.3071V53.915H23.2096ZM33.3337 60.4723H32.3918L28.8156 54.9981V60.4723H27.874V53.3684H28.8156L32.4017 58.8672V53.3684H33.3337V60.4723ZM38.1151 60.4723C38.0629 60.3682 38.0206 60.183 37.9882 59.9161C37.5685 60.3519 37.0677 60.57 36.4854 60.57C35.9651 60.57 35.5372 60.4236 35.2023 60.1308C34.8706 59.8347 34.7046 59.4608 34.7046 59.0086C34.7046 58.4591 34.9126 58.0329 35.3292 57.7304C35.7486 57.4245 36.3375 57.2716 37.0954 57.2716H37.9736V56.8571C37.9736 56.5415 37.8792 56.2909 37.6904 56.1057C37.502 55.917 37.2237 55.8227 36.8562 55.8227C36.5342 55.8227 36.2643 55.9039 36.0464 56.0666C35.8285 56.2291 35.7195 56.426 35.7195 56.657H34.812C34.812 56.3936 34.9047 56.1398 35.09 55.8957C35.2787 55.6486 35.5325 55.4535 35.8513 55.3102C36.1733 55.1673 36.526 55.0956 36.9099 55.0956C37.5181 55.0956 37.9947 55.2484 38.3395 55.5544C38.6842 55.8569 38.8631 56.2749 38.8762 56.8081V59.2379C38.8762 59.7227 38.938 60.108 39.0617 60.3942V60.4723H38.1151ZM36.6173 59.7845C36.9002 59.7845 37.1686 59.7113 37.4223 59.5649C37.6759 59.4185 37.8596 59.2283 37.9736 58.994V57.911H37.266C36.1602 57.911 35.6072 58.2345 35.6072 58.8817C35.6072 59.1647 35.7016 59.3861 35.8901 59.5453C36.0788 59.7046 36.3212 59.7845 36.6173 59.7845ZM41.5157 53.915V55.1933H42.5013V55.891H41.5157V59.1647C41.5157 59.3762 41.5597 59.5354 41.6475 59.6428C41.7353 59.7469 41.885 59.7991 42.0965 59.7991C42.2003 59.7991 42.3435 59.7796 42.5258 59.7405V60.4723C42.2881 60.5374 42.0574 60.57 41.8328 60.57C41.4296 60.57 41.1254 60.4479 40.9204 60.204C40.7156 59.9601 40.6132 59.6136 40.6132 59.1647V55.891H39.6521V55.1933H40.6132V53.915H41.5157ZM44.5408 60.4723H43.6381V55.1933H44.5408V60.4723ZM43.5649 53.7929C43.5649 53.6467 43.6089 53.523 43.6967 53.4221C43.7877 53.3212 43.921 53.271 44.0966 53.271C44.2725 53.271 44.4058 53.3212 44.4968 53.4221C44.5878 53.523 44.6333 53.6467 44.6333 53.7929C44.6333 53.9393 44.5878 54.0612 44.4968 54.1589C44.4058 54.2564 44.2725 54.3053 44.0966 54.3053C43.921 54.3053 43.7877 54.2564 43.6967 54.1589C43.6089 54.0612 43.5649 53.9393 43.5649 53.7929ZM47.7317 59.2478L49.0391 55.1933H49.9614L48.0683 60.4723H47.3802L45.4678 55.1933H46.3899L47.7317 59.2478ZM52.9522 60.57C52.2366 60.57 51.6544 60.3358 51.2055 59.8674C50.7566 59.3957 50.5322 58.7662 50.5322 57.9792V57.8133C50.5322 57.2897 50.6314 56.8229 50.8298 56.4131C51.0314 55.9998 51.3111 55.6778 51.669 55.447C52.0301 55.2128 52.4204 55.0956 52.8399 55.0956C53.5262 55.0956 54.0597 55.3216 54.4404 55.7738C54.8208 56.2259 55.0112 56.8731 55.0112 57.7156V58.0913H51.4348C51.4479 58.6119 51.599 59.0331 51.8886 59.3551C52.1812 59.6737 52.5522 59.8332 53.0009 59.8332C53.3197 59.8332 53.5898 59.7682 53.8109 59.6381C54.032 59.508 54.2257 59.3356 54.3916 59.1209L54.943 59.5503C54.5005 60.23 53.8369 60.57 52.9522 60.57ZM52.8399 55.8373C52.4758 55.8373 52.1698 55.9706 51.9228 56.2373C51.6754 56.5009 51.5226 56.8717 51.4642 57.3498H54.1084V57.2815C54.0825 56.8229 53.9588 56.4683 53.7377 56.2177C53.5166 55.9642 53.2173 55.8373 52.8399 55.8373Z" fill="#6F7A87"/>
</svg>
