<svg width="68" height="61" viewBox="0 0 68 61" fill="none" xmlns="http://www.w3.org/2000/svg">
<path d="M67.3747 30.5769C67.3747 26.1137 61.7853 21.8839 53.2158 19.2608C55.1934 10.5266 54.3145 3.57762 50.4417 1.35286C49.5491 0.830997 48.5054 0.583801 47.3655 0.583801V3.64629C47.9972 3.64629 48.5054 3.76989 48.9311 4.00335C50.7988 5.07453 51.6091 9.15327 50.9773 14.3993C50.8263 15.6902 50.5791 17.0498 50.2769 18.4369C47.5853 17.7777 44.6464 17.2695 41.5564 16.9399C39.7024 14.3993 37.7798 12.0922 35.8434 10.0734C40.3204 5.91225 44.5228 3.63255 47.3793 3.63255V0.570068C43.6027 0.570068 38.6587 3.26176 33.6599 7.93102C28.661 3.28923 23.7171 0.625001 19.9405 0.625001V3.68749C22.7832 3.68749 26.9993 5.95345 31.4763 10.0871C29.5537 12.1059 27.631 14.3993 25.8045 16.9399C22.7008 17.2695 19.762 17.7777 17.0703 18.4506C16.7544 17.0773 16.5209 15.7452 16.3561 14.468C15.7107 9.22193 16.5072 5.1432 18.3612 4.05828C18.7732 3.81108 19.3088 3.70122 19.9405 3.70122V0.638734C18.7869 0.638734 17.7432 0.88593 16.8368 1.40779C12.9778 3.63255 12.1126 10.5678 14.1039 19.2746C5.56191 21.9113 0 26.1274 0 30.5769C0 35.0402 5.58938 39.27 14.1588 41.893C12.1813 50.6273 13.0602 57.5762 16.9329 59.801C17.8256 60.3229 18.8693 60.5701 20.0229 60.5701C23.7995 60.5701 28.7434 57.8784 33.7423 53.2091C38.7411 57.8509 43.685 60.5151 47.4617 60.5151C48.6152 60.5151 49.659 60.2679 50.5653 59.7461C54.4244 57.5213 55.2895 50.5861 53.2982 41.8793C61.8128 39.2563 67.3747 35.0265 67.3747 30.5769ZM49.4942 21.4169C48.986 23.1885 48.3543 25.015 47.6402 26.8415C47.0771 25.7429 46.4866 24.6442 45.8411 23.5456C45.2094 22.4469 44.5365 21.3757 43.8636 20.332C45.8137 20.6204 47.6951 20.9775 49.4942 21.4169ZM43.2044 36.0427C42.1332 37.8967 41.0346 39.6545 39.8947 41.2888C37.8485 41.4673 35.7748 41.5634 33.6873 41.5634C31.6136 41.5634 29.5399 41.4673 27.5074 41.3025C26.3676 39.6683 25.2552 37.9242 24.184 36.0839C23.1403 34.2849 22.1927 32.4584 21.3275 30.6181C22.179 28.7779 23.1403 26.9377 24.1703 25.1386C25.2415 23.2846 26.3401 21.5268 27.48 19.8926C29.5262 19.714 31.5999 19.6179 33.6873 19.6179C35.761 19.6179 37.8347 19.714 39.8672 19.8788C41.0071 21.5131 42.1195 23.2572 43.1907 25.0974C44.2344 26.8965 45.182 28.723 46.0471 30.5632C45.182 32.4034 44.2344 34.2437 43.2044 36.0427ZM47.6402 34.2574C48.3818 36.0976 49.0135 37.9379 49.5354 39.7232C47.7363 40.1627 45.8412 40.5334 43.8773 40.8218C44.5502 39.7644 45.2232 38.6795 45.8549 37.5671C46.4866 36.4684 47.0771 35.3561 47.6402 34.2574ZM33.7148 48.9106C32.4376 47.5923 31.1604 46.1228 29.897 44.516C31.133 44.571 32.3964 44.6122 33.6736 44.6122C34.9645 44.6122 36.2417 44.5847 37.4914 44.516C36.2554 46.1228 34.9783 47.5923 33.7148 48.9106ZM23.4974 40.8218C21.5473 40.5334 19.6658 40.1764 17.8668 39.7369C18.3749 37.9654 19.0066 36.1388 19.7208 34.3123C20.2838 35.411 20.8743 36.5096 21.5198 37.6083C22.1653 38.7069 22.8244 39.7781 23.4974 40.8218ZM33.6461 12.2432C34.9233 13.5616 36.2005 15.031 37.4639 16.6378C36.228 16.5829 34.9645 16.5417 33.6873 16.5417C32.3964 16.5417 31.1192 16.5692 29.8695 16.6378C31.1055 15.031 32.3827 13.5616 33.6461 12.2432ZM23.4836 20.332C22.8107 21.3895 22.1378 22.4744 21.5061 23.5868C20.8743 24.6854 20.2838 25.7841 19.7208 26.8827C18.9792 25.0425 18.3474 23.2022 17.8256 21.4169C19.6246 20.9912 21.5198 20.6204 23.4836 20.332ZM11.0552 37.5259C6.19364 35.4522 3.04875 32.733 3.04875 30.5769C3.04875 28.4208 6.19364 25.6879 11.0552 23.628C12.2362 23.1198 13.5271 22.6667 14.8592 22.2409C15.642 24.9326 16.672 27.7342 17.9492 30.6044C16.6857 33.4609 15.6695 36.2487 14.9004 38.9267C13.5409 38.5009 12.2499 38.034 11.0552 37.5259ZM18.4436 57.1505C16.5759 56.0793 15.7656 52.0006 16.3973 46.7545C16.5484 45.4636 16.7956 44.1041 17.0977 42.717C19.7894 43.3762 22.7283 43.8843 25.8183 44.2139C27.6722 46.7545 29.5949 49.0617 31.5312 51.0805C27.0542 55.2416 22.8519 57.5213 19.9954 57.5213C19.3774 57.5076 18.8556 57.384 18.4436 57.1505ZM51.0185 46.6859C51.664 51.9319 50.8675 56.0107 49.0135 57.0956C48.6015 57.3428 48.0659 57.4526 47.4342 57.4526C44.5914 57.4526 40.3754 55.1867 35.8984 51.053C37.821 49.0342 39.7436 46.7408 41.5702 44.2002C44.6738 43.8706 47.6127 43.3625 50.3044 42.6895C50.6203 44.0766 50.8675 45.4087 51.0185 46.6859ZM56.3058 37.5259C55.1247 38.034 53.8338 38.4872 52.5017 38.9129C51.7189 36.2212 50.6889 33.4197 49.4118 30.5495C50.6752 27.693 51.6915 24.9052 52.4605 22.2272C53.8201 22.6529 55.111 23.1198 56.3195 23.628C61.181 25.7017 64.3259 28.4208 64.3259 30.5769C64.3122 32.733 61.1673 35.4659 56.3058 37.5259Z" fill="#6F7A87"/>
<path d="M33.6735 36.8529C37.1397 36.8529 39.9495 34.043 39.9495 30.5768C39.9495 27.1107 37.1397 24.3008 33.6735 24.3008C30.2073 24.3008 27.3975 27.1107 27.3975 30.5768C27.3975 34.043 30.2073 36.8529 33.6735 36.8529Z" fill="#6F7A87"/>
</svg>
