<svg width="81" height="61" viewBox="0 0 81 61" fill="none" xmlns="http://www.w3.org/2000/svg">
<path d="M68.9227 35.0238C66.1233 35.0395 63.6993 35.7117 61.6663 36.7125C60.9156 35.2272 60.1649 33.9293 60.04 32.9601C59.8992 31.8343 59.7272 31.1462 59.8992 29.8017C60.0711 28.457 60.853 26.5495 60.853 26.3931C60.8372 26.2524 60.6809 25.5644 59.0702 25.5488C57.4596 25.5332 56.0676 25.8615 55.9112 26.2837C55.7548 26.7058 55.442 27.6752 55.2387 28.6759C54.9572 30.1456 52.0171 35.3521 50.3438 38.0883C49.7964 37.0251 49.3272 36.0869 49.2332 35.3363C49.0927 34.2107 48.9205 33.5226 49.0927 32.1781C49.2647 30.8334 50.0466 28.926 50.0466 28.7697C50.031 28.6289 49.8746 27.941 48.264 27.9254C46.653 27.9097 45.2613 28.2381 45.1049 28.6602C44.9485 29.0824 44.7765 30.083 44.4324 31.0524C44.1039 32.0218 40.1942 40.715 39.1777 42.9821C38.6616 44.1391 38.2082 45.0616 37.8796 45.687C37.5512 46.3124 37.864 45.7339 37.8327 45.7964C37.5512 46.328 37.3948 46.6251 37.3948 46.6251V46.6409C37.1759 47.0318 36.9413 47.4069 36.8317 47.4069C36.7535 47.4069 36.5971 46.3593 36.863 44.921C37.4416 41.9033 38.8491 37.1972 38.8336 37.0252C38.8336 36.947 39.0993 36.1182 37.9264 35.6962C36.7848 35.2741 36.3783 35.9777 36.2843 35.9777C36.1905 35.9777 36.1123 36.2278 36.1123 36.2278C36.1123 36.2278 37.379 30.9276 33.6883 30.9276C31.3737 30.9276 28.1834 33.4449 26.6039 35.7433C25.603 36.2905 23.4761 37.4474 21.2241 38.6827C20.364 39.1518 19.4726 39.6521 18.6281 40.1055L18.4562 39.9176C13.9835 35.1488 5.71061 31.7716 6.05467 25.3612C6.17978 23.0315 6.993 16.8869 21.9438 9.44453C34.189 3.34679 43.9946 5.01976 45.699 8.74094C48.1231 14.0569 40.46 23.9384 27.7302 25.3612C22.8822 25.9084 20.3329 24.0322 19.6919 23.3286C19.0194 22.5938 18.9256 22.5625 18.6753 22.7032C18.2687 22.9221 18.519 23.5788 18.6753 23.9696C19.0507 24.9547 20.6145 26.7058 23.2731 27.5814C25.6032 28.3475 31.2959 28.7697 38.1769 26.1117C45.8869 23.1253 51.9078 14.8387 50.1406 7.91228C48.3422 0.860789 36.6443 -1.45323 25.5877 2.47122C19.0036 4.8165 11.8723 8.47514 6.74277 13.2752C0.643641 18.9664 -0.325965 23.9384 0.0806438 26.0022C1.50393 33.3664 11.6534 38.1664 15.7194 41.7156C15.5161 41.8249 15.3285 41.9344 15.1565 42.0283C13.1234 43.0288 5.3822 47.0785 3.44299 51.3624C1.25355 56.2093 3.78704 59.6961 5.47603 60.1652C10.6994 61.6193 16.0479 59.0082 18.941 54.7085C21.8184 50.4088 21.4745 44.827 20.1452 42.2785L20.0982 42.1847L21.6933 41.2466C22.7256 40.6368 23.7422 40.0739 24.6334 39.5891C24.1331 40.9493 23.7733 42.5598 23.5858 44.9051C23.3668 47.657 24.4928 51.2217 25.9785 52.6289C26.6353 53.2385 27.4173 53.2543 27.9021 53.2543C29.6223 53.2543 30.4043 51.8313 31.2644 50.1272C32.3279 48.0477 33.2662 45.6399 33.2662 45.6399C33.2662 45.6399 32.0933 52.1598 35.2992 52.1598C36.4721 52.1598 37.6451 50.6432 38.1768 49.8614V49.8771C38.1768 49.8771 38.208 49.8302 38.2706 49.7207C38.3362 49.6237 38.3988 49.5247 38.4583 49.4238V49.3925C38.9274 48.5795 39.9752 46.7189 41.5391 43.6388C43.5564 39.6674 45.4957 34.6954 45.4957 34.6954C45.4957 34.6954 45.6834 35.915 46.262 37.9163C46.6059 39.1047 47.3566 40.4023 47.9352 41.6687C47.4661 42.3254 47.1846 42.7008 47.1846 42.7008L47.2002 42.7164C46.825 43.2168 46.4026 43.7485 45.9649 44.28C44.3697 46.1875 42.4618 48.3609 42.2116 48.9863C41.9144 49.721 41.977 50.2683 42.5556 50.7062C42.9779 51.0189 43.7285 51.0813 44.5261 51.0189C45.9649 50.9249 46.9658 50.5655 47.4662 50.3464C48.2482 50.065 49.1396 49.6428 49.9997 49.0174C51.5636 47.8606 52.5176 46.2189 52.4237 44.03C52.3768 42.826 51.9858 41.6378 51.501 40.512C51.6418 40.3088 51.7827 40.1054 51.9233 39.8866C54.3942 36.2747 56.3021 32.3035 56.3021 32.3035C56.3021 32.3035 56.4898 33.5231 57.0684 35.5244C57.3654 36.5407 57.9599 37.6509 58.4916 38.7454C56.177 40.6373 54.7226 42.8262 54.2222 44.2646C53.2995 46.9226 54.0189 48.1265 55.3795 48.408C55.9892 48.5331 56.8651 48.2516 57.5218 47.9702C58.335 47.7044 59.3203 47.2508 60.2275 46.5787C61.7914 45.4216 63.2927 43.8112 63.2145 41.6379C63.1676 40.6373 62.9017 39.6523 62.542 38.7141C64.5125 37.9011 67.0615 37.432 70.2989 37.8229C77.2581 38.636 78.6344 42.9826 78.3687 44.7962C78.1028 46.6101 76.6484 47.6106 76.1634 47.9233C75.6786 48.2204 75.5222 48.33 75.5692 48.5487C75.6317 48.8772 75.8507 48.8614 76.2729 48.799C76.8515 48.705 79.9324 47.3137 80.0575 43.9679C80.2452 39.6676 76.1634 34.977 68.9227 35.0238ZM15.2503 53.1137C12.9514 55.631 9.71415 56.5847 8.33793 55.7717C6.85225 54.9118 7.43073 51.2062 10.2615 48.5326C11.9818 46.9065 14.2181 45.4055 15.6882 44.4831C16.0166 44.2798 16.517 43.9829 17.1113 43.6231C17.2051 43.5607 17.2677 43.5293 17.2677 43.5293C17.3772 43.4668 17.5023 43.3886 17.6274 43.3104C18.6752 47.1254 17.6743 50.4714 15.2503 53.1137ZM32.062 41.6844C31.2644 43.6388 29.5754 48.6577 28.5589 48.3762C27.683 48.1417 27.1514 44.3424 28.3867 40.5899C29.0123 38.6979 30.3416 36.4466 31.1235 35.5708C32.3904 34.1637 33.7665 33.6946 34.1107 34.2731C34.5173 35.0238 32.5624 40.4648 32.062 41.6844ZM45.9336 48.3137C45.5896 48.4858 45.2768 48.6108 45.136 48.5171C45.0266 48.4546 45.2766 48.22 45.2766 48.22C45.2766 48.22 47.0125 46.3595 47.7006 45.4995C48.0916 44.9993 48.5608 44.4208 49.0612 43.764V43.9516C49.0614 46.2029 46.9032 47.7039 45.9336 48.3137ZM56.6304 45.8746C56.3802 45.687 56.4116 45.1085 57.256 43.2948C57.5845 42.5756 58.335 41.3717 59.6331 40.2303C59.7894 40.6993 59.8834 41.1526 59.8676 41.5749C59.8522 44.3893 57.8504 45.4368 56.6304 45.8746Z" fill="#6F7A87"/>
</svg>
