<svg width="61" height="61" viewBox="0 0 61 61" fill="none" xmlns="http://www.w3.org/2000/svg">
<path d="M0.577023 21.493C0.577023 21.493 -0.900155 20.4282 0.872458 19.0064L5.0024 15.3134C5.0024 15.3134 6.18415 14.0701 7.43359 15.1534L45.5448 44.0076V57.8438C45.5448 57.8438 45.5263 60.0165 42.7382 59.7765L0.577023 21.493Z" fill="#6F7A87"/>
<path d="M10.4003 30.4114L0.577042 39.3422C0.577042 39.3422 -0.432363 40.0931 0.577042 41.4348L5.13783 45.5832C5.13783 45.5832 6.22109 46.7465 7.82137 45.4232L18.2355 37.5265L10.4003 30.4114Z" fill="#6F7A87"/>
<path d="M27.6462 30.4852L45.6616 16.729L45.5447 2.96661C45.5447 2.96661 44.7753 -0.0369849 42.2087 1.52636L18.2354 23.3455L27.6462 30.4852Z" fill="#6F7A87"/>
<path d="M42.7381 59.795C43.7844 60.8659 45.0523 60.5151 45.0523 60.5151L59.0917 53.597C60.8889 52.3722 60.6365 50.8519 60.6365 50.8519V9.54014C60.6365 7.72444 58.7778 7.09664 58.7778 7.09664L46.6095 1.23101C43.9506 -0.412353 42.2087 1.52644 42.2087 1.52644C42.2087 1.52644 44.4491 -0.0861422 45.5447 2.96669V57.5915C45.5447 57.967 45.4647 58.3363 45.3047 58.6686C44.9846 59.3149 44.2891 59.9181 42.6211 59.6657L42.7381 59.795Z" fill="#6F7A87"/>
</svg>
