<svg width="61" height="61" viewBox="0 0 61 61" fill="none" xmlns="http://www.w3.org/2000/svg">
<path d="M4.54834 30.5047C4.54834 40.6915 10.4682 49.4949 19.0524 53.6667L6.77642 20.0309C5.34849 23.2316 4.54834 26.7736 4.54834 30.5047Z" fill="#6F7A87"/>
<path d="M47.6566 29.206C47.6566 26.0254 46.5142 23.8227 45.5343 22.1082C44.2298 19.9883 43.007 18.1931 43.007 16.0731C43.007 13.7074 44.8012 11.5052 47.3285 11.5052C47.4426 11.5052 47.5508 11.5194 47.662 11.5257C43.0834 7.33094 36.9834 4.76979 30.2835 4.76979C21.2928 4.76979 13.3828 9.3828 8.78125 16.3699C9.38504 16.388 9.95405 16.4007 10.4374 16.4007C13.1292 16.4007 17.2959 16.0741 17.2959 16.0741C18.6832 15.9923 18.8468 18.03 17.461 18.194C17.461 18.194 16.0668 18.3581 14.5155 18.4394L23.8871 46.3158L29.519 29.4244L25.5095 18.4384C24.1237 18.3571 22.8108 18.1931 22.8108 18.1931C21.424 18.1118 21.5866 15.9914 22.9734 16.0731C22.9734 16.0731 27.2234 16.3998 29.7521 16.3998C32.4435 16.3998 36.6107 16.0731 36.6107 16.0731C37.999 15.9914 38.162 18.029 36.7757 18.1931C36.7757 18.1931 35.3787 18.3571 33.8303 18.4384L43.1304 46.1037L45.6974 37.5256C46.8099 33.9659 47.6566 31.4092 47.6566 29.206Z" fill="#6F7A87"/>
<path d="M30.7349 32.7559L23.0135 55.1936C25.319 55.8714 27.7572 56.2421 30.2835 56.2421C33.2803 56.2421 36.1543 55.724 38.8295 54.7832C38.7604 54.673 38.6978 54.556 38.6463 54.4287L30.7349 32.7559Z" fill="#6F7A87"/>
<path d="M52.865 18.1573C52.9757 18.9771 53.0383 19.8571 53.0383 20.8037C53.0383 23.4153 52.5506 26.351 51.0815 30.0219L43.2206 52.7505C50.8715 48.2888 56.0176 39.9996 56.0176 30.5052C56.0181 26.0308 54.8752 21.8232 52.865 18.1573Z" fill="#6F7A87"/>
<path d="M30.2834 0.505432C13.7423 0.505432 0.28418 13.963 0.28418 30.5047C0.28418 47.0484 13.7423 60.5054 30.2834 60.5054C46.8241 60.5054 60.2842 47.0484 60.2842 30.5047C60.2837 13.963 46.8241 0.505432 30.2834 0.505432ZM30.2834 59.1303C14.5008 59.1303 1.65971 46.2888 1.65971 30.5047C1.65971 14.7215 14.5003 1.88101 30.2834 1.88101C46.0656 1.88101 58.9057 14.7215 58.9057 30.5047C58.9057 46.2888 46.0656 59.1303 30.2834 59.1303Z" fill="#6F7A87"/>
</svg>
