<svg version="1.1" id="Warstwa_1" xmlns="http://www.w3.org/2000/svg"  x="0px" y="0px"
	 viewBox="0 0 512 512" fill="current">
<path class="st0" d="M256,512C114.6,512.1,0,397.5,0,256.2c0-68,27-133.1,75-181.2C175-25,337-25,437,75s100,262,0,362
	C389.1,485.2,323.9,512.2,256,512z M270.4,481.4l2.6-0.7c43.4-12.5,69-67.7,77.9-90.8l0.7-1.8l-1.7-0.8
	c-24.4-11.1-50.6-17.7-77.3-19.6l-2.2-0.1L270.4,481.4z M239.4,367.7c-26.7,1.9-52.9,8.5-77.3,19.6l-1.7,0.8l0.7,1.8
	c9,23.1,34.6,78.3,77.9,90.8l2.6,0.7V367.5L239.4,367.7z M132.8,403.3c-9.4,6.1-18.3,12.9-26.7,20.2l-1.7,1.5l1.7,1.5
	c17.5,15.5,37.4,28.1,58.8,37.5l7.1,3.1l-4.7-6.2c-12.2-16-22.8-35.1-31.6-56.8l-0.9-2.3L132.8,403.3z M376.2,404.3
	c-8.8,21.8-19.4,40.9-31.6,56.8l-4.7,6.2l7.1-3.1c21.4-9.4,41.3-22.1,58.8-37.5l1.7-1.5l-1.7-1.5c-8.4-7.4-17.3-14.2-26.7-20.2
	l-2.1-1.3L376.2,404.3z M402.6,272.4c-1.3,35.3-6.5,69-15.5,100.2l-0.4,1.5l1.3,0.8c13.6,8.2,26.4,17.7,38.2,28.3l1.5,1.4l1.3-1.6
	c31.3-36.6,50-82.3,53.3-130.4l0.1-2.2h-79.9L402.6,272.4z M29.5,272.6c3.3,48,22,93.8,53.3,130.4l1.3,1.6l1.5-1.4
	c11.9-10.6,24.7-20.1,38.3-28.3l1.3-0.8l-0.4-1.5c-9-31.2-14.2-64.9-15.5-100.2l-0.1-2h-80L29.5,272.6z M270.4,338.7l1.9,0.1
	c29.7,1.8,58.9,8.8,86.2,20.7l2.1,0.9l0.6-2.3c7.4-28,11.6-56.7,12.5-85.7l0.1-2.1H270.4L270.4,338.7z M138.2,272.5
	c1,28.9,5.2,57.7,12.5,85.7l0.6,2.3l2.1-0.9c27.3-11.9,56.5-18.9,86.2-20.7l1.9-0.1v-68.2H138.1L138.2,272.5z M426.2,108.9
	c-11.8,10.6-24.6,20.1-38.2,28.3l-1.3,0.8l0.4,1.5c9,31.2,14.2,64.9,15.5,100.2l0.1,2h80l-0.2-2.2c-3.3-48-22-93.8-53.3-130.4
	l-1.3-1.6L426.2,108.9z M358.4,152.5c-27.3,11.9-56.5,18.9-86.2,20.7l-1.9,0.1v68.2h103.5l-0.1-2.1c-1-28.9-5.2-57.7-12.5-85.7
	l-0.6-2.3L358.4,152.5z M150.7,153.8c-7.4,28-11.6,56.7-12.5,85.7l-0.1,2.1h103.5v-68.2l-1.9-0.1c-29.7-1.8-58.9-8.8-86.2-20.7
	l-2.1-0.9L150.7,153.8z M82.8,109.1c-31.3,36.6-50,82.3-53.3,130.4l-0.2,2.2h80l0.1-2c1.2-35.3,6.5-69,15.5-100.2l0.4-1.5l-1.3-0.8
	c-13.6-8.2-26.4-17.7-38.2-28.3l-1.5-1.4L82.8,109.1z M270.4,144.5l2.2-0.2c26.7-1.9,52.9-8.5,77.3-19.6l1.7-0.8l-0.7-1.8
	C342,99,316.4,43.8,273,31.4l-2.6-0.8L270.4,144.5z M239,31.3c-43.4,12.5-69,67.7-77.9,90.8l-0.7,1.8l1.7,0.8
	c24.4,11.1,50.6,17.7,77.3,19.6l2.2,0.2V30.6L239,31.3z M344.7,50.9c12.2,16,22.8,35.1,31.6,56.8l0.9,2.3l2-1.3
	c9.4-6.1,18.3-12.9,26.7-20.2l1.7-1.5l-1.7-1.5c-17.5-15.5-37.4-28.1-58.8-37.5l-7.1-3.1L344.7,50.9z M164.9,47.8
	c-21.4,9.4-41.3,22.1-58.8,37.5l-1.7,1.5l1.7,1.5c8.4,7.4,17.3,14.2,26.7,20.2l2,1.3l0.9-2.3c8.8-21.7,19.4-40.9,31.6-56.8l4.7-6.2
	L164.9,47.8z"/>
</svg>
