<svg version="1.1" id="Warstwa_1" xmlns="http://www.w3.org/2000/svg" x="0px" y="0px"
	 viewBox="0 0 512 512" fill="current">
<g>
	<path class="st0" d="M496.4,267.1c-2.2,0-4.4-0.5-6.4-1.4l-134-60c-7.9-3.5-11.4-12.8-7.9-20.7c1.6-3.5,4.4-6.3,7.9-7.9l134-59.8
		c7.9-3.5,17.1,0,20.6,7.9c3.5,7.9,0,17.1-7.9,20.6l-102.1,45.6l102.1,45.7c7.9,3.5,11.4,12.8,7.9,20.6
		C508.1,263.5,502.5,267.1,496.4,267.1L496.4,267.1z"/>
	<path class="st0" d="M313.7,484.9c-147.4,0-276.2-99.5-313.2-241.9c-2.3-8.3,2.7-16.9,11-19.2c8.3-2.3,16.9,2.7,19.2,11
		c0,0.1,0.1,0.2,0.1,0.3c33.6,128.8,149.9,218.6,283,218.5c8.6,0.2,15.4,7.4,15.2,16C328.7,477.9,322,484.6,313.7,484.9L313.7,484.9
		z"/>
	<path class="st0" d="M259.9,355.2c-8.6,0-15.6-7-15.6-15.6V42.8c0-8.6,7-15.6,15.6-15.6c8.6,0,15.6,7,15.6,15.6c0,0,0,0,0,0v296.8
		C275.5,348.2,268.6,355.2,259.9,355.2L259.9,355.2z"/>
</g>
</svg>
