<?xml version="1.0" encoding="utf-8"?>
<!-- Generator: Adobe Illustrator 27.0.1, SVG Export Plug-In . SVG Version: 6.00 Build 0)  -->
<svg version="1.1" id="Warstwa_1" xmlns="http://www.w3.org/2000/svg" xmlns:xlink="http://www.w3.org/1999/xlink" x="0px" y="0px"
	 viewBox="0 0 512 512" style="enable-background:new 0 0 512 512;" xml:space="preserve">
<style type="text/css">
	.st0{fill-rule:evenodd;clip-rule:evenodd;}
</style>
<g>
	<path class="st0" d="M12,120.4c0-15,12.1-27.1,27.1-27.1h433.8c15,0,27.1,12.1,27.1,27.1s-12.1,27.1-27.1,27.1H39.1
		C24.1,147.6,12,135.4,12,120.4z"/>
	<path class="st0" d="M93.3,256c0-15,12.1-27.1,27.1-27.1h271.1c15,0,27.1,12.1,27.1,27.1s-12.1,27.1-27.1,27.1H120.4
		C105.5,283.1,93.3,271,93.3,256L93.3,256z"/>
	<path class="st0" d="M201.8,391.6c0-15,12.1-27.1,27.1-27.1h54.2c15,0,27.1,12.1,27.1,27.1c0,15-12.1,27.1-27.1,27.1h-54.2
		C213.9,418.7,201.8,406.5,201.8,391.6z"/>
</g>
</svg>
