<?xml version="1.0" encoding="utf-8"?>
<!-- Generator: Adobe Illustrator 27.2.0, SVG Export Plug-In . SVG Version: 6.00 Build 0)  -->
<svg version="1.1" id="Warstwa_1" xmlns="http://www.w3.org/2000/svg" xmlns:xlink="http://www.w3.org/1999/xlink" x="0px" y="0px"
	 viewBox="0 0 100 50" style="enable-background:new 0 0 100 50;" xml:space="preserve">
<style type="text/css">
	.st0{fill:url(#SVGID_1_);}
	.st1{fill:url(#SVGID_00000183250538899205800890000017755328664049125807_);}
	.st2{fill:#FFFFFF;}
	.st3{fill:url(#SVGID_00000120520389093622316750000002024570867888835971_);}
	.st4{fill:url(#SVGID_00000164509907301905467230000003709749110513698475_);}
</style>
<g>
	<linearGradient id="SVGID_1_" gradientUnits="userSpaceOnUse" x1="12.2872" y1="37.7127" x2="50" y2="-3.686751e-05">
		<stop  offset="0.45" style="stop-color:#FFFFFF"/>
		<stop  offset="1" style="stop-color:#FFFFFF;stop-opacity:0"/>
		<stop  offset="1" style="stop-color:#FFFFFF;stop-opacity:0"/>
	</linearGradient>
	<polygon class="st0" points="43.6,0 9.1,34.5 15.5,40.9 50,6.4 50,0 44.2,0 	"/>
	
		<linearGradient id="SVGID_00000158708634181902231520000003857360651357464231_" gradientUnits="userSpaceOnUse" x1="13.78" y1="45.461" x2="50" y2="45.461">
		<stop  offset="0.3" style="stop-color:#FFFFFF"/>
		<stop  offset="1" style="stop-color:#FFFFFF;stop-opacity:0"/>
		<stop  offset="1" style="stop-color:#000000"/>
	</linearGradient>
	<path style="fill:url(#SVGID_00000158708634181902231520000003857360651357464231_);" d="M50,40.9h-4.5h-30c0,0-1.3,5.2-1.7,9.1H50
		V40.9z"/>
	<path class="st2" d="M20.5,40.9h-5l3.8-3.8c-1.8-1.8-4.9-4.7-6.6-6.3l-3.6,3.6V0H0v50h20.1C20.2,46.8,20.4,43.2,20.5,40.9z"/>
	
		<linearGradient id="SVGID_00000000212488400785209450000000060432755005764505_" gradientUnits="userSpaceOnUse" x1="58.5541" y1="23.1086" x2="97.2222" y2="-3.9672">
		<stop  offset="0.5" style="stop-color:#FFFFFF"/>
		<stop  offset="1" style="stop-color:#FFFFFF;stop-opacity:0"/>
		<stop  offset="1" style="stop-color:#FFFFFF;stop-opacity:0"/>
	</linearGradient>
	<polygon style="fill:url(#SVGID_00000000212488400785209450000000060432755005764505_);" points="54.5,17.1 59.9,25 100,2.9 100,0 
		85.6,0 	"/>
	
		<linearGradient id="SVGID_00000139269370750084630640000016853249392307786422_" gradientUnits="userSpaceOnUse" x1="58.5541" y1="26.8913" x2="97.2222" y2="53.967">
		<stop  offset="0.5" style="stop-color:#FFFFFF"/>
		<stop  offset="1" style="stop-color:#FFFFFF;stop-opacity:0"/>
		<stop  offset="1" style="stop-color:#FFFFFF;stop-opacity:0"/>
	</linearGradient>
	<polygon style="fill:url(#SVGID_00000139269370750084630640000016853249392307786422_);" points="100,50 100,47.1 59.9,25 
		54.5,32.9 85.6,50 	"/>
	<path class="st2" d="M63.2,26.8L59.9,25l3.2-1.8c-1.1-2.6-3-7.3-3.6-8.9l-4.9,2.7V0h-9.1v11v30V50H50v0h4.5V32.9l5.8,3.2L63.2,26.8
		z"/>
</g>
</svg>
